<svg width="24" height="24" viewBox="0 0 24 24" fill="none" xmlns="http://www.w3.org/2000/svg">
<path fill-rule="evenodd" clip-rule="evenodd" d="M6.79698 3.52227C8.16384 3.03517 10.0031 2.75 12 2.75C13.9921 2.75 15.8312 3.03522 17.199 3.52219C17.8797 3.76452 18.4843 4.07104 18.933 4.44996C19.3788 4.82643 19.75 5.34698 19.75 6V18C19.75 18.652 19.3771 19.1713 18.9325 19.5462C18.4843 19.9242 17.8802 20.2309 17.1997 20.4738C15.832 20.9621 13.9929 21.25 12 21.25C10.0023 21.25 8.16301 20.9621 6.79637 20.4738C6.1163 20.2307 5.51302 19.9239 5.06545 19.5457C4.62131 19.1704 4.25 18.6511 4.25 18V6C4.25 5.34787 4.61966 4.82741 5.06501 4.45049C5.51301 4.07131 6.11679 3.76467 6.79698 3.52227ZM6.03406 5.59545C5.77159 5.81759 5.75 5.95713 5.75 6V18C5.75 18.0389 5.76994 18.1771 6.03361 18.4C6.29385 18.6199 6.71495 18.8518 7.30113 19.0612C8.46699 19.4779 10.1277 19.75 12 19.75C13.8671 19.75 15.528 19.4779 16.6953 19.0612C17.2823 18.8516 17.7045 18.6196 17.9656 18.3994C18.2304 18.1762 18.25 18.038 18.25 18V6C18.25 5.95802 18.2287 5.81857 17.9652 5.59598C17.7045 5.37584 17.2828 5.14423 16.696 4.93531C15.5288 4.51978 13.8679 4.25 12 4.25C10.1269 4.25 8.46616 4.51983 7.30052 4.93523C6.71446 5.14408 6.29386 5.37556 6.03406 5.59545Z" fill="black"/>
<path fill-rule="evenodd" clip-rule="evenodd" d="M5 5.25C5.41421 5.25 5.75 5.58579 5.75 6C5.75 6.03887 5.76994 6.17715 6.03361 6.39996C6.29385 6.61987 6.71495 6.85176 7.30113 7.06124C8.46699 7.47786 10.1277 7.75 12 7.75C13.8671 7.75 15.528 7.47792 16.6953 7.06116C17.2823 6.85161 17.7045 6.61959 17.9656 6.39943C18.2304 6.17617 18.25 6.03798 18.25 6C18.25 5.58579 18.5858 5.25 19 5.25C19.4142 5.25 19.75 5.58579 19.75 6C19.75 6.65202 19.3771 7.17133 18.9325 7.54619C18.4843 7.92416 17.8802 8.23089 17.1997 8.47384C15.832 8.96208 13.9929 9.25 12 9.25C10.0023 9.25 8.16301 8.96214 6.79637 8.47376C6.1163 8.23074 5.51302 7.92388 5.06545 7.54567C4.62131 7.17035 4.25 6.65113 4.25 6C4.25 5.58579 4.58579 5.25 5 5.25Z" fill="black"/>
<path fill-rule="evenodd" clip-rule="evenodd" d="M5 13.25C5.41421 13.25 5.75 13.5858 5.75 14C5.75 14.0389 5.76994 14.1771 6.03361 14.4C6.29385 14.6199 6.71495 14.8518 7.30113 15.0612C8.46699 15.4779 10.1277 15.75 12 15.75C13.8671 15.75 15.528 15.4779 16.6953 15.0612C17.2823 14.8516 17.7045 14.6196 17.9656 14.3994C18.2304 14.1762 18.25 14.038 18.25 14C18.25 13.5858 18.5858 13.25 19 13.25C19.4142 13.25 19.75 13.5858 19.75 14C19.75 14.652 19.3771 15.1713 18.9325 15.5462C18.4843 15.9242 17.8802 16.2309 17.1997 16.4738C15.832 16.9621 13.9929 17.25 12 17.25C10.0023 17.25 8.16301 16.9621 6.79637 16.4738C6.1163 16.2307 5.51302 15.9239 5.06545 15.5457C4.62131 15.1704 4.25 14.6511 4.25 14C4.25 13.5858 4.58579 13.25 5 13.25Z" fill="black"/>
<path fill-rule="evenodd" clip-rule="evenodd" d="M5 9.25C5.41421 9.25 5.75 9.58579 5.75 10C5.75 10.0389 5.76994 10.1771 6.03361 10.4C6.29385 10.6199 6.71495 10.8518 7.30113 11.0612C8.46699 11.4779 10.1277 11.75 12 11.75C13.8671 11.75 15.528 11.4779 16.6953 11.0612C17.2823 10.8516 17.7045 10.6196 17.9656 10.3994C18.2304 10.1762 18.25 10.038 18.25 10C18.25 9.58579 18.5858 9.25 19 9.25C19.4142 9.25 19.75 9.58579 19.75 10C19.75 10.652 19.3771 11.1713 18.9325 11.5462C18.4843 11.9242 17.8802 12.2309 17.1997 12.4738C15.832 12.9621 13.9929 13.25 12 13.25C10.0023 13.25 8.16301 12.9621 6.79637 12.4738C6.1163 12.2307 5.51302 11.9239 5.06545 11.5457C4.62131 11.1704 4.25 10.6511 4.25 10C4.25 9.58579 4.58579 9.25 5 9.25Z" fill="black"/>
</svg>
