<svg width="24" height="24" viewBox="0 0 24 24" fill="none" xmlns="http://www.w3.org/2000/svg">
<path d="M21.17 22.6399C21.1697 23.0005 21.0263 23.3463 20.7713 23.6013C20.5163 23.8563 20.1705 23.9997 19.8099 24H5.29671C4.93606 24 4.59014 23.8569 4.33492 23.6021C4.0797 23.3473 3.93603 23.0016 3.93546 22.6409V1.39848C3.93531 1.21968 3.97043 1.04261 4.03878 0.877386C4.10714 0.712168 4.20741 0.562047 4.33384 0.435615C4.46027 0.309183 4.61039 0.208919 4.77561 0.14056C4.94083 0.0722012 5.11791 0.0370893 5.29671 0.0372319H14.6109L21.17 6.72644V22.6399Z" fill="#23A566"/>
<path d="M15.3333 6.55151L21.1707 12.1309V6.68698H15.9999C15.7741 6.68953 15.5515 6.63352 15.3539 6.52441L15.3333 6.55151Z" fill="#1C8F5A"/>
<path d="M21.1696 6.71522H15.9847C15.6241 6.71493 15.2783 6.57153 15.0232 6.31652C14.7682 6.0615 14.6248 5.7157 14.6245 5.35505V0L21.1696 6.71522Z" fill="#8ED1B1"/>
<path fill-rule="evenodd" clip-rule="evenodd" d="M17.0201 19.5819H8.05167V11.8057H17.0201V19.5819ZM13.0935 12.9274V14.2886H15.9179V12.9296L13.0935 12.9274ZM13.0935 15.1459V16.4465H15.9179V15.1394L13.0935 15.1459ZM13.0935 17.2756V18.4797H15.9179V17.2691L13.0935 17.2756ZM11.9848 18.4732V17.2691H9.16148V18.4732H11.9848ZM11.9848 16.4324V15.1394H9.16148V16.4389L11.9848 16.4324ZM11.9848 14.3027V12.9274H9.16148V14.2886L11.9848 14.3027Z" fill="white"/>
</svg>
