<svg width="24" height="24" viewBox="0 0 24 24" fill="none" xmlns="http://www.w3.org/2000/svg">
<path d="M21.9987 12.2216C22.0108 11.5339 21.9382 10.8462 21.785 10.1782H12.2031V13.8896H17.8288C17.6151 15.2057 16.8609 16.3756 15.7439 17.1345L15.7237 17.257L18.7523 19.5573L18.962 19.5771C20.8857 17.8341 21.9987 15.269 21.9987 12.2216Z" fill="#4285F4"/>
<path d="M12.203 21.9999C14.9574 21.9999 17.2723 21.1106 18.962 19.5771L15.7438 17.1305C14.6993 17.8183 13.4613 18.1661 12.2071 18.1305C9.56156 18.1147 7.22254 16.4389 6.39985 13.9725L6.27887 13.9844L3.12926 16.3717L3.08893 16.4823C4.81496 19.8696 8.34366 22.0039 12.203 21.9999Z" fill="#34A853"/>
<path d="M6.3958 13.9764C6.174 13.3401 6.05705 12.6721 6.05705 11.9963C6.06108 11.3243 6.174 10.6564 6.38774 10.0161L6.38371 9.88566L3.19377 7.45886L3.08892 7.50629C1.63711 10.3323 1.63711 13.6602 3.08892 16.4862L6.3958 13.9764Z" fill="#FBBC05"/>
<path d="M12.203 5.86608C13.667 5.84237 15.0784 6.37594 16.1471 7.35615L19.0265 4.6013C17.1795 2.90175 14.7316 1.97293 12.199 2.0006C8.33963 2.0006 4.81094 4.13096 3.08087 7.51425L6.3797 10.024C7.21045 7.55772 9.5535 5.88189 12.203 5.86608Z" fill="#EB4335"/>
</svg>
