<svg width="16" height="17" viewBox="0 0 16 17" fill="none" xmlns="http://www.w3.org/2000/svg">
<path fill-rule="evenodd" clip-rule="evenodd" d="M1.5 7.75C1.5 4.57437 4.07437 2 7.25 2C10.4256 2 13 4.57437 13 7.75C13 10.9256 10.4256 13.5 7.25 13.5C4.07437 13.5 1.5 10.9256 1.5 7.75ZM7.25 3C4.62665 3 2.5 5.12665 2.5 7.75C2.5 10.3734 4.62665 12.5 7.25 12.5C9.87336 12.5 12 10.3734 12 7.75C12 5.12665 9.87336 3 7.25 3Z" fill="#848484"/>
<path fill-rule="evenodd" clip-rule="evenodd" d="M10.6086 11.1089C10.8039 10.9137 11.1205 10.9137 11.3157 11.1089L14.3532 14.1465C14.5485 14.3418 14.5485 14.6584 14.3532 14.8537C14.1579 15.0489 13.8414 15.0489 13.6461 14.8536L10.6086 11.816C10.4133 11.6208 10.4133 11.3042 10.6086 11.1089Z" fill="#848484"/>
</svg>
