<svg width="24" height="24" viewBox="0 0 24 24" fill="none" xmlns="http://www.w3.org/2000/svg">
<path fill-rule="evenodd" clip-rule="evenodd" d="M5.48999 5.72998C5.9042 5.72998 6.23999 6.06577 6.23999 6.47998V18.989C6.23999 19.6835 6.79439 20.2427 7.49675 20.249C7.5074 20.2491 7.51806 20.2494 7.5287 20.25H16.5C17.1858 20.25 17.75 19.6858 17.75 19V6.49998C17.75 6.08577 18.0858 5.74998 18.5 5.74998C18.9142 5.74998 19.25 6.08577 19.25 6.49998V19C19.25 20.5142 18.0142 21.75 16.5 21.75H7.49999C7.4844 21.75 7.46881 21.7495 7.45325 21.7485C5.94948 21.7192 4.73999 20.5044 4.73999 18.989V6.47998C4.73999 6.06577 5.07578 5.72998 5.48999 5.72998Z" fill="black"/>
<path fill-rule="evenodd" clip-rule="evenodd" d="M14.0019 3.73989C14.3902 3.74237 14.73 4.07363 14.73 4.48998V6.48998C14.73 6.90419 15.0658 7.23998 15.48 7.23998C15.8942 7.23998 16.23 6.90419 16.23 6.48998V4.48998C16.23 3.25256 15.22 2.2276 13.9759 2.23998H9.98999C8.75592 2.23998 7.73769 3.25656 7.74999 4.50405V6.49998C7.74999 6.91419 8.08577 7.24998 8.49999 7.24998C8.9142 7.24998 9.24999 6.91419 9.24999 6.49998V4.49998L9.24993 4.49094C9.24499 4.0807 9.58569 3.73998 9.98999 3.73998H13.99C13.994 3.73998 13.998 3.73995 14.0019 3.73989Z" fill="black"/>
<path fill-rule="evenodd" clip-rule="evenodd" d="M3.25 6.5C3.25 6.08579 3.58579 5.75 4 5.75H20C20.4142 5.75 20.75 6.08579 20.75 6.5C20.75 6.91421 20.4142 7.25 20 7.25H4C3.58579 7.25 3.25 6.91421 3.25 6.5Z" fill="black"/>
</svg>
